<?xml version="1.0" standalone="no"?>
<!DOCTYPE svg PUBLIC "-//W3C//DTD SVG 20010904//EN"
 "http://www.w3.org/TR/2001/REC-SVG-20010904/DTD/svg10.dtd">
<svg version="1.0" xmlns="http://www.w3.org/2000/svg"
 width="350.000000pt" height="350.000000pt" viewBox="0 0 350.000000 350.000000"
 preserveAspectRatio="xMidYMid meet">
<metadata>
Created by potrace 1.14, written by Peter Selinger 2001-2017
</metadata>
<g transform="translate(0.000000,350.000000) scale(0.100000,-0.100000)"
fill="#000000" stroke="none">
<path d="M1704 2308 c-79 -112 -377 -524 -383 -530 -4 -4 -47 49 -96 119 -50
70 -107 150 -127 177 -20 28 -70 100 -110 160 l-73 109 -3 -408 c-1 -225 0
-411 3 -414 3 -3 37 -5 75 -6 l70 0 0 179 0 179 99 -136 c54 -75 111 -152 127
-172 l30 -37 62 89 c34 48 90 127 124 176 33 48 64 87 68 87 4 0 8 -73 8 -162
0 -90 0 -172 1 -183 1 -19 7 -21 70 -20 39 0 73 4 77 7 5 5 13 828 8 828 0 0
-14 -19 -30 -42z"/>
<path d="M164 2305 c-2 -5 -3 -186 -2 -400 l3 -390 65 0 c36 0 71 1 78 3 9 3
12 38 12 128 l0 124 53 0 52 0 75 -116 c41 -64 79 -122 86 -128 11 -12 168
-15 179 -4 3 3 -3 16 -14 29 -10 13 -51 75 -90 137 l-72 112 35 31 c73 64 106
185 79 289 -23 90 -81 148 -179 179 -51 16 -354 21 -360 6z m347 -167 c44 -47
51 -113 19 -166 -25 -41 -54 -52 -141 -52 l-69 0 0 120 0 120 85 0 c74 0 87
-3 106 -22z"/>
<path d="M1950 2310 c-7 -4 -9 -151 -8 -401 l3 -394 170 2 c191 1 254 16 312
73 87 86 76 239 -24 316 l-40 30 32 37 c64 74 70 180 15 255 -47 65 -109 83
-297 86 -85 1 -158 -1 -163 -4z m317 -176 c21 -22 25 -32 20 -66 -8 -58 -31
-77 -97 -79 -97 -3 -90 -9 -90 86 l0 85 70 0 c63 0 74 -3 97 -26z m0 -309 c40
-10 64 -45 58 -85 -10 -61 -33 -75 -135 -78 l-90 -4 0 89 0 90 73 -3 c39 -2
82 -6 94 -9z"/>
<path d="M2600 2310 c-9 -5 12 -40 162 -268 38 -56 68 -108 68 -114 0 -11
-185 -308 -227 -364 -13 -17 -23 -35 -23 -40 0 -5 42 -9 93 -9 l94 -1 41 72
c23 39 54 93 68 120 14 27 30 57 36 67 8 16 24 -3 102 -120 l92 -138 97 0 c68
0 96 3 93 11 -2 6 -60 97 -129 201 l-125 191 19 28 c10 16 23 36 29 44 16 24
163 251 187 290 l22 35 -95 -1 c-52 -1 -96 -3 -98 -5 -2 -2 -36 -62 -76 -133
l-73 -129 -18 24 c-10 13 -38 58 -63 99 -25 41 -56 91 -69 110 l-24 34 -87 1
c-48 0 -91 -2 -96 -5z"/>
</g>
</svg>
