<svg xmlns="http://www.w3.org/2000/svg" version="1.1" xmlns:xlink="http://www.w3.org/1999/xlink" xmlns:svgjs="http://svgjs.com/svgjs" width="2000" height="800" preserveAspectRatio="none" viewBox="0 0 2000 800"><g mask="url(&quot;#SvgjsMask1033&quot;)" fill="none"><rect width="2000" height="800" x="0" y="0" fill="rgba(204, 162, 58, 1)"></rect><path d="M -999.7579965720511,679 C -866.36,575.6 -599.56,164.2 -332.757996572051,162 C -65.96,159.8 67.44,625 334.242003427949,668 C 601.04,711 734.44,367.2 1001.2420034279489,377 C 1268.04,386.8 1468.49,726.2 1668.242003427949,717 C 1867.99,707.8 1933.65,408.2 2000,331" stroke="rgba(241, 241, 241, 1)" stroke-width="2"></path><path d="M -157.43800331245245,556 C -24.04,462.6 242.76,61.4 509.56199668754755,89 C 776.36,116.6 909.76,672 1176.5619966875474,694 C 1443.36,716 1576.76,213 1843.5619966875474,199 C 2110.36,185 2479.27,642.8 2510.5619966875474,624 C 2541.85,605.2 2102.11,208.8 2000,105" stroke="rgba(241, 241, 241, 1)" stroke-width="2"></path><path d="M -1320.193436320445,228 C -1186.79,278.4 -919.99,501.8 -653.193436320445,480 C -386.39,458.2 -252.99,101 13.806563679554984,119 C 280.61,137 414.01,578.8 680.806563679555,570 C 947.61,561.2 1083.97,66.4 1347.806563679555,75 C 1611.65,83.6 1869.56,505.4 2000,613" stroke="rgba(241, 241, 241, 1)" stroke-width="2"></path><path d="M -24.439181909075273,692 C 108.96,607.2 375.76,280.4 642.5608180909247,268 C 909.36,255.6 1042.76,634.8 1309.5608180909248,630 C 1576.36,625.2 1709.76,286.4 1976.5608180909248,244 C 2243.36,201.6 2638.87,419.8 2643.560818090925,418 C 2648.25,416.2 2128.71,271.6 2000,235" stroke="rgba(241, 241, 241, 1)" stroke-width="2"></path><path d="M -834.5764384992165,636 C -701.18,526.6 -434.38,119 -167.57643849921647,89 C 99.22,59 232.62,473.4 499.42356150078353,486 C 766.22,498.6 899.62,154.6 1166.4235615007835,152 C 1433.22,149.4 1666.71,449.6 1833.4235615007835,473 C 2000.14,496.4 1966.68,309.8 2000,269" stroke="rgba(241, 241, 241, 1)" stroke-width="2"></path><path d="M -80.69391520433453,722 C 52.71,611.4 319.51,212.2 586.3060847956655,169 C 853.11,125.8 986.51,519.2 1253.3060847956654,506 C 1520.11,492.8 1653.51,107.2 1920.3060847956654,103 C 2187.11,98.8 2571.37,426.4 2587.3060847956654,485 C 2603.24,543.6 2117.46,413.8 2000,396" stroke="rgba(241, 241, 241, 1)" stroke-width="2"></path><path d="M -673.5408354396128,435 C -540.14,416 -273.34,297.4 -6.540835439612794,340 C 260.26,382.6 393.66,637.8 660.4591645603872,648 C 927.26,658.2 1060.66,434.8 1327.4591645603873,391 C 1594.26,347.2 1859.95,462.4 1994.4591645603873,429 C 2128.97,395.6 1998.89,265 2000,224" stroke="rgba(241, 241, 241, 1)" stroke-width="2"></path></g><defs><mask id="SvgjsMask1033"><rect width="2000" height="800" fill="#ffffff"></rect></mask></defs></svg>